<svg width="26" height="26" viewBox="0 0 26 26" fill="none" xmlns="http://www.w3.org/2000/svg">
<path d="M3.4 10.6V20.8M8.2 10.6V20.8M11.8 20.8H4.6C3.64522 20.8 2.72955 21.1793 2.05442 21.8544C1.37928 22.5295 1 23.4452 1 24.4C1 24.5591 1.06321 24.7117 1.17574 24.8243C1.28826 24.9368 1.44087 25 1.6 25H11.8M24.4 16L16 24.4M1 8.884C1 7.4476 1.5784 6.568 2.776 5.9008L7.708 3.1564C10.2916 1.72 11.584 1 13 1C14.416 1 15.7084 1.72 18.292 3.1564L23.224 5.9008C24.4204 6.568 25 7.4476 25 8.884C25 9.2728 25 9.4684 24.958 9.628C24.7348 10.468 23.9728 10.6012 23.2372 10.6012H2.7628C2.0272 10.6012 1.2664 10.4692 1.042 9.628C1 9.4672 1 9.2728 1 8.884Z" stroke="#010731" stroke-width="2" stroke-linecap="round" stroke-linejoin="round"/>
<path d="M16.9 17.8C17.3971 17.8 17.8 17.3971 17.8 16.9C17.8 16.4029 17.3971 16 16.9 16C16.4029 16 16 16.4029 16 16.9C16 17.3971 16.4029 17.8 16.9 17.8Z" stroke="#010731" stroke-width="2" stroke-linecap="round" stroke-linejoin="round"/>
<path d="M23.5 24.4C23.997 24.4 24.4 23.997 24.4 23.5C24.4 23.0029 23.997 22.6 23.5 22.6C23.0029 22.6 22.6 23.0029 22.6 23.5C22.6 23.997 23.0029 24.4 23.5 24.4Z" stroke="#010731" stroke-width="2" stroke-linecap="round" stroke-linejoin="round"/>
</svg>
