<svg width="26" height="26" viewBox="0 0 26 26" fill="none" xmlns="http://www.w3.org/2000/svg">
<path d="M10.3333 9H5M5 5H9M21 21L15 17L11.6667 19.6667L5 14.3333M17.6667 11.6667C16.7826 11.6667 15.9348 11.3155 15.3096 10.6904C14.6845 10.0652 14.3333 9.21739 14.3333 8.33333C14.3333 7.44928 14.6845 6.60143 15.3096 5.97631C15.9348 5.35119 16.7826 5 17.6667 5C18.5507 5 19.3986 5.35119 20.0237 5.97631C20.6488 6.60143 21 7.44928 21 8.33333C21 9.21739 20.6488 10.0652 20.0237 10.6904C19.3986 11.3155 18.5507 11.6667 17.6667 11.6667Z" stroke="#010630" stroke-width="2" stroke-linecap="round" stroke-linejoin="round"/>
<path d="M1 24.2V1.8C1 1.58783 1.08429 1.38434 1.23431 1.23431C1.38434 1.08429 1.58783 1 1.8 1H24.2C24.4122 1 24.6157 1.08429 24.7657 1.23431C24.9157 1.38434 25 1.58783 25 1.8V24.2C25 24.4122 24.9157 24.6157 24.7657 24.7657C24.6157 24.9157 24.4122 25 24.2 25H1.8C1.58783 25 1.38434 24.9157 1.23431 24.7657C1.08429 24.6157 1 24.4122 1 24.2Z" stroke="#010630" stroke-width="2"/>
</svg>
