<svg width="28" height="28" viewBox="0 0 28 28" fill="none" xmlns="http://www.w3.org/2000/svg">
<path d="M24 2H4C3.46957 2 2.96086 2.21071 2.58579 2.58579C2.21071 2.96086 2 3.46957 2 4V24C2 24.5304 2.21071 25.0391 2.58579 25.4142C2.96086 25.7893 3.46957 26 4 26H24C24.5304 26 25.0391 25.7893 25.4142 25.4142C25.7893 25.0391 26 24.5304 26 24V4C26 3.46957 25.7893 2.96086 25.4142 2.58579C25.0391 2.21071 24.5304 2 24 2Z" stroke="#010731" stroke-width="2.5" stroke-linecap="round" stroke-linejoin="round"/>
<path d="M12 18.6667L15.3333 21.3333L20.6666 14.6667M7.33331 8H20.6666M7.33331 13.3333H12.6666" stroke="#010731" stroke-width="2.5" stroke-linecap="round" stroke-linejoin="round"/>
</svg>
