<svg width="26" height="26" viewBox="0 0 26 26" fill="none" xmlns="http://www.w3.org/2000/svg">
<path d="M13 21.3077V25.0001M17.6153 19.4616V23.1539M8.38457 19.4616V23.1539M14.9643 6.33359C14.8591 6.03289 14.6628 5.77244 14.4028 5.58847C14.1427 5.4045 13.8317 5.30616 13.5132 5.30713H12.3224C11.9847 5.30833 11.6593 5.43391 11.4083 5.65986C11.1573 5.88581 10.9984 6.19631 10.9618 6.53204C10.9253 6.86777 11.0137 7.20519 11.2102 7.47985C11.4067 7.75451 11.6975 7.94715 12.027 8.02098L13.8418 8.41975C14.2113 8.50215 14.5375 8.71781 14.7581 9.02554C14.9787 9.33326 15.0781 9.71146 15.0375 10.0879C14.9968 10.4643 14.8189 10.8125 14.5377 11.0661C14.2565 11.3196 13.8918 11.4606 13.5132 11.4622H12.4867C12.1682 11.4632 11.8572 11.3648 11.5971 11.1809C11.3371 10.9969 11.1408 10.7365 11.0356 10.4357M13 5.30713V3.76929M13 13.0001V11.4622M5.1538 8.84621C5.03139 8.84621 4.914 8.79758 4.82744 8.71103C4.74089 8.62447 4.69226 8.50708 4.69226 8.38467C4.69226 8.26226 4.74089 8.14487 4.82744 8.05831C4.914 7.97176 5.03139 7.92313 5.1538 7.92313C5.27621 7.92313 5.3936 7.97176 5.48016 8.05831C5.56671 8.14487 5.61534 8.26226 5.61534 8.38467C5.61534 8.50708 5.56671 8.62447 5.48016 8.71103C5.3936 8.79758 5.27621 8.84621 5.1538 8.84621ZM20.8461 8.84621C20.7237 8.84621 20.6063 8.79758 20.5197 8.71103C20.4332 8.62447 20.3846 8.50708 20.3846 8.38467C20.3846 8.26226 20.4332 8.14487 20.5197 8.05831C20.6063 7.97176 20.7237 7.92313 20.8461 7.92313C20.9685 7.92313 21.0859 7.97176 21.1725 8.05831C21.259 8.14487 21.3076 8.26226 21.3076 8.38467C21.3076 8.50708 21.259 8.62447 21.1725 8.71103C21.0859 8.79758 20.9685 8.84621 20.8461 8.84621Z" stroke="#4AC5B5" stroke-width="1.7" stroke-linecap="round" stroke-linejoin="round"/>
<path d="M23.1538 1H2.84615C2.35652 1 1.88695 1.1945 1.54073 1.54073C1.1945 1.88695 1 2.35652 1 2.84615V13.9231C1 14.4127 1.1945 14.8823 1.54073 15.2285C1.88695 15.5747 2.35652 15.7692 2.84615 15.7692H23.1538C23.6435 15.7692 24.1131 15.5747 24.4593 15.2285C24.8055 14.8823 25 14.4127 25 13.9231V2.84615C25 2.35652 24.8055 1.88695 24.4593 1.54073C24.1131 1.1945 23.6435 1 23.1538 1Z" stroke="#4AC5B5" stroke-width="1.7" stroke-linecap="round" stroke-linejoin="round"/>
</svg>
