<svg width="21" height="21" viewBox="0 0 21 21" fill="none" xmlns="http://www.w3.org/2000/svg">
<path d="M1.84033 8.1045L1.85836 8.14332C2.02338 8.49852 2.22444 8.8305 2.42683 9.16466C2.43418 9.17679 2.44153 9.18893 2.44888 9.20107C2.65851 9.5473 2.86815 9.89678 3.03793 10.2764C3.25395 10.7568 3.65147 10.9309 4.06484 11.0916C4.08677 11.1002 4.10874 11.1087 4.13073 11.1172C4.5222 11.2684 4.92022 11.4223 5.16898 11.8311C5.40208 12.2143 5.39369 12.6477 5.3714 13.0804C5.36998 13.1081 5.3685 13.1357 5.36702 13.1633C5.34526 13.5698 5.32367 13.973 5.4834 14.3401C5.60681 14.6235 5.81403 14.7966 6.04306 14.9519C6.09679 14.9883 6.15184 15.0238 6.20729 15.0596C6.38735 15.1758 6.57159 15.2946 6.72845 15.4565M1.84033 8.1045L7.552 18.9582M1.84033 8.1045L1.82911 8.1458C1.62067 8.91316 1.51524 9.70484 1.51559 10.5C1.51559 14.4153 4.03313 17.753 7.53466 18.9828L7.58609 19.0008L7.55204 18.9583L7.552 18.9582M1.84033 8.1045L7.552 18.9582M6.72845 15.4565L6.71723 15.4674L6.72838 15.4565C6.7284 15.4565 6.72843 15.4565 6.72845 15.4565ZM6.72845 15.4565C6.93925 15.6714 7.04206 15.9257 7.10019 16.1949C7.14131 16.3853 7.16023 16.5844 7.17904 16.7822C7.18675 16.8632 7.19443 16.944 7.20361 17.0239L7.20362 17.024C7.27518 17.6731 7.39133 18.3166 7.55125 18.9497L7.55221 18.9535H7.55172C7.55172 18.9549 7.55174 18.9558 7.55177 18.9565C7.5518 18.9571 7.55185 18.9575 7.55191 18.9579L7.55198 18.9582L7.552 18.9582M1.84419 8.1499C1.84759 8.15722 1.85101 8.16453 1.85444 8.17184C1.85605 8.16589 1.85765 8.15994 1.85927 8.15399L1.84419 8.1499ZM1.84419 8.1499L1.83002 8.15648C1.83263 8.16209 1.83524 8.1677 1.83787 8.1733C1.83997 8.1655 1.84207 8.1577 1.84419 8.1499ZM7.53983 18.968L7.52763 18.9778C7.52314 18.9722 7.52146 18.9662 7.52083 18.9613C7.52716 18.9636 7.5335 18.9658 7.53983 18.968ZM7.53983 18.968L7.54492 18.9535L7.54501 18.9533C7.54391 18.9529 7.54282 18.9525 7.54172 18.9521C7.53953 18.9514 7.53734 18.9506 7.53516 18.9498C7.53547 18.9511 7.53578 18.9523 7.5361 18.9535C7.5361 18.9582 7.5361 18.9634 7.53983 18.968ZM8.98903 19.3567L8.98959 19.343C8.99049 19.3208 8.9913 19.2988 8.9921 19.2772C8.99585 19.1762 8.99931 19.0829 9.00984 19.0142C9.12387 18.2682 9.49722 17.539 10.0007 16.9812L10.0123 16.9916L10.0007 16.9811C10.2066 16.7534 10.444 16.5561 10.6804 16.3596C10.7297 16.3187 10.7789 16.2777 10.8278 16.2366C11.1118 15.9977 11.3848 15.7506 11.5927 15.4414L11.5927 15.4414C12.0002 14.838 12.1225 14.0251 11.9544 13.3194L11.9544 13.3194C11.8314 12.8018 11.418 12.4552 10.9356 12.166C10.7423 12.0502 10.5387 11.9441 10.339 11.8399C10.2895 11.8141 10.2403 11.7884 10.1915 11.7628C9.94611 11.6336 9.71214 11.5047 9.51908 11.3618L9.52838 11.3492L9.51908 11.3618C9.40815 11.2796 9.30039 11.1863 9.19248 11.0924L9.17912 11.0807C9.07549 10.9905 8.97157 10.9 8.86376 10.8177C8.63889 10.6461 8.39869 10.5115 8.11329 10.4913C8.01281 10.4843 7.91883 10.4881 7.8255 10.4919C7.79568 10.4931 7.76594 10.4943 7.73606 10.4952C7.61311 10.4987 7.48924 10.4961 7.35469 10.4614L7.35466 10.4614C7.29318 10.4454 7.23515 10.4252 7.17895 10.4046C7.16439 10.3992 7.14997 10.3939 7.13566 10.3885C7.09452 10.3732 7.05421 10.3582 7.01352 10.3448C6.90424 10.3088 6.79446 10.2854 6.66835 10.302C6.45967 10.3294 6.28487 10.4427 6.10768 10.5575C6.08327 10.5733 6.05881 10.5892 6.03422 10.6049C5.83238 10.7333 5.62202 10.8479 5.35629 10.8121C5.35629 10.8121 5.35628 10.8121 5.35628 10.8121L5.35836 10.7966C4.86555 10.7308 4.35779 10.1539 4.24568 9.6844C4.1018 9.08088 4.5792 8.88515 5.0907 8.83143L8.98903 19.3567ZM8.98903 19.3567L9.00261 19.359C9.49739 19.4423 9.99825 19.4843 10.5 19.4844C11.8674 19.4843 13.2166 19.1718 14.4447 18.5706C15.6728 17.9694 16.7473 17.0955 17.586 16.0156L17.5938 16.0217L17.5888 16.0021C17.4702 15.5431 17.3962 15.0737 17.3678 14.6004L17.3678 14.6002C17.3615 14.5147 17.3569 14.4301 17.3524 14.3461C17.3355 14.034 17.3191 13.7299 17.2157 13.4188M8.98903 19.3567L15.6083 6.70273C15.546 6.71356 15.4823 6.72347 15.4178 6.73349C15.26 6.75805 15.0978 6.78327 14.9417 6.82425C14.7224 6.88182 14.5176 6.96996 14.3583 7.12908L14.3583 7.12909C14.2092 7.27744 14.0938 7.44995 13.9765 7.62514C13.9714 7.63267 13.9664 7.6402 13.9613 7.64774C13.8391 7.83022 13.7134 8.0144 13.5451 8.17249C13.2237 8.47506 12.9965 8.79023 12.9011 9.13538C12.8057 9.48007 12.8412 9.85651 13.0487 10.283C13.4474 11.1022 14.2815 11.5472 15.1824 11.4887C15.3733 11.476 15.5658 11.4422 15.7511 11.4096C15.7809 11.4044 15.8105 11.3992 15.8399 11.3941C16.0513 11.3576 16.2515 11.3275 16.4235 11.3403C16.596 11.3531 16.7422 11.4093 16.8428 11.5469C16.9429 11.6836 16.9959 11.8982 16.9895 12.2231C16.9802 12.6785 17.0752 12.9935 17.2157 13.4188M16.9977 5.35183L16.9977 5.3362C16.7761 5.33596 16.6296 5.45779 16.5096 5.61084C16.4562 5.67899 16.4076 5.75391 16.3599 5.82745C16.3542 5.83634 16.3484 5.84521 16.3427 5.85404C16.2892 5.93629 16.2362 6.01558 16.1774 6.08234C16.0273 6.25235 15.8042 6.3659 15.5681 6.40684C15.3321 6.44779 15.0846 6.4159 14.8859 6.29696C14.7304 6.2038 14.6041 6.00018 14.5588 5.78588C14.5136 5.5716 14.5503 5.35238 14.7128 5.22443L14.7129 5.22436C14.7712 5.17773 14.8405 5.15099 14.9142 5.13168C14.951 5.12203 14.9886 5.1143 15.0264 5.10681C15.0316 5.10577 15.0369 5.10473 15.0421 5.1037C15.0745 5.0973 15.1069 5.0909 15.1384 5.08349L15.1384 5.08349C15.2714 5.05207 15.3759 5.00729 15.4638 4.93928C15.5517 4.87128 15.622 4.78081 15.6876 4.65951L15.6876 4.6595C15.7786 4.49098 15.9015 4.35153 16.0358 4.21884C16.0915 4.1638 16.149 4.11008 16.207 4.0559C16.219 4.04474 16.2309 4.03357 16.2429 4.02235C16.3129 3.95678 16.3832 3.89013 16.4508 3.81974L16.4511 3.81937C16.4536 3.81664 16.4557 3.81458 16.4582 3.81216C16.4597 3.81075 16.4613 3.80921 16.4631 3.80735L16.4749 3.79562L16.4625 3.78461C16.195 3.54759 15.9138 3.32665 15.6202 3.12295L15.6001 3.14669C15.7189 3.26874 15.7938 3.47208 15.8494 3.67111C15.8808 3.78347 15.8793 3.8774 15.8545 3.95509C15.8297 4.03273 15.7812 4.09537 15.7163 4.14459C15.5859 4.24341 15.39 4.28751 15.1932 4.28751C15.0616 4.28751 14.8584 4.27419 14.6935 4.21463C14.611 4.18486 14.5394 4.14399 14.4908 4.08866C14.4427 4.03382 14.4164 3.96401 14.4254 3.874L14.4254 3.87399C14.4414 3.71295 14.5472 3.54914 14.6863 3.40824C14.825 3.26765 14.9948 3.15196 15.1348 3.0869C15.2698 3.02422 15.377 3.02097 15.4656 3.05463L15.4798 3.02704C14.0251 2.05399 12.3165 1.52987 10.5664 1.5198L10.5468 1.51968L10.5511 1.53884L10.5522 1.54402C10.6081 1.79308 10.6642 2.04301 10.6072 2.27916C10.5132 2.66803 10.1104 2.89072 9.72877 2.82146C9.53132 2.78564 9.37868 2.69521 9.23721 2.58398C9.16971 2.53091 9.10496 2.47327 9.03898 2.41454L9.02915 2.4058C8.95988 2.34416 8.88911 2.28157 8.81295 2.2228C8.67209 2.11285 8.52552 2.10197 8.37688 2.11521C8.32847 2.11952 8.27916 2.12647 8.2298 2.13344C8.20396 2.13708 8.17811 2.14073 8.15236 2.144C8.07689 2.15359 8.00108 2.16015 7.92449 2.15513L15.7627 6.67498C16.0909 6.61486 16.4232 6.55397 16.7487 6.63382C16.9631 6.6876 17.1232 6.80103 17.2737 6.93226C17.3207 6.97327 17.3669 7.01623 17.4137 7.05965C17.5158 7.15445 17.6203 7.25142 17.7399 7.33496L17.7488 7.32215L17.7399 7.33497C17.8859 7.43688 18.0088 7.49044 18.1153 7.50692C18.2222 7.52348 18.3116 7.50249 18.3898 7.45706C18.4676 7.41189 18.5337 7.34289 18.5951 7.26431C18.6389 7.2082 18.681 7.14635 18.7233 7.08415C18.7401 7.05943 18.7569 7.03465 18.7739 7.01015L18.7789 7.00306L18.7755 6.99511C18.6474 6.6947 18.5031 6.40149 18.3431 6.11679L18.3333 6.09939L18.3188 6.11307C18.2096 6.21574 18.0673 6.32011 17.9457 6.34918C17.8854 6.3636 17.8325 6.35898 17.7909 6.32912C17.749 6.29908 17.7152 6.24107 17.6989 6.14108L17.6989 6.14106C17.6898 6.08601 17.6849 6.03429 17.6803 5.98438L17.6798 5.97954C17.675 5.92833 17.6702 5.87881 17.661 5.8306C17.6424 5.73345 17.6056 5.64155 17.5144 5.54698L17.5141 5.54668C17.3763 5.41141 17.1908 5.3358 16.9977 5.3362L16.9977 5.35183ZM16.9977 5.35183C17.1867 5.35143 17.3682 5.42543 17.5031 5.55783M16.9977 5.35183C16.6873 5.35149 16.5278 5.59737 16.373 5.836C16.3138 5.92736 16.2552 6.01767 16.1891 6.09268L17.5031 5.55783M17.2157 13.4188L17.2009 13.4237M17.2157 13.4188C17.2157 13.4188 17.2157 13.4188 17.2157 13.4188L17.2009 13.4237M17.2009 13.4237C17.3035 13.7327 17.3198 14.034 17.3367 14.3459C17.3413 14.4302 17.3459 14.5152 17.3522 14.6013M17.2009 13.4237C17.0603 12.9982 16.9645 12.681 16.9739 12.2228C16.994 11.2071 16.4287 11.3065 15.7539 11.425C15.5687 11.4576 15.3752 11.4915 15.1834 11.5043C14.2767 11.5632 13.4363 11.1152 13.0346 10.2898L17.3522 14.6013M17.3522 14.6013C17.3807 15.0756 17.4548 15.546 17.5737 16.006L17.3522 14.6013ZM17.5031 5.55783C17.6377 5.69736 17.6501 5.82991 17.6647 5.98601C17.6694 6.03581 17.6743 6.08801 17.6834 6.1436L17.5031 5.55783ZM17.8877 3.11222L17.8878 3.11232C18.8658 4.08076 19.6428 5.2329 20.1742 6.50255C20.7057 7.7722 20.981 9.13434 20.9843 10.5107C20.9877 11.8871 20.7191 13.2505 20.194 14.5228C19.6688 15.795 18.8975 16.951 17.9242 17.9242C16.951 18.8975 15.795 19.6688 14.5228 20.194C13.2505 20.7191 11.8871 20.9877 10.5107 20.9843C9.13434 20.981 7.7722 20.7057 6.50255 20.1742C5.2329 19.6428 4.08076 18.8658 3.11232 17.8878L3.11222 17.8877C2.13419 16.9192 1.35716 15.7671 0.825755 14.4974C0.294349 13.2278 0.0190442 11.8657 0.0156566 10.4893C0.0122691 9.11293 0.280865 7.74945 0.806015 6.4772C1.33116 5.20495 2.10252 4.049 3.07576 3.07576C4.049 2.10252 5.20495 1.33116 6.4772 0.806015C7.74945 0.280865 9.11293 0.0122691 10.4893 0.0156566C11.8657 0.0190442 13.2278 0.294349 14.4974 0.825755C15.7671 1.35716 16.9192 2.13419 17.8877 3.11222ZM6.09021 9.08848C5.9942 8.99311 5.89278 8.89983 5.75439 8.84857L6.86814 3.12861C6.62961 3.31526 6.39715 3.49715 6.69854 3.8262C7.03534 4.19382 7.69025 3.92383 8.02658 3.68606L8.03559 3.69883C8.03559 3.69882 8.03559 3.69882 8.0356 3.69882C8.11847 3.64032 8.19343 3.56357 8.26608 3.48363C8.28664 3.461 8.30698 3.43816 8.32727 3.41537C8.37908 3.3572 8.43057 3.29938 8.4845 3.2465C8.6341 3.0998 8.79776 2.99584 9.02379 3.03857C9.20562 3.07312 9.3946 3.21738 9.56611 3.39181C9.7371 3.5657 9.88835 3.76705 9.99507 3.91207C10.1752 4.15716 10.1964 4.33422 10.1274 4.46854C10.0573 4.60497 9.89144 4.70368 9.68104 4.78416C9.51033 4.84945 9.31352 4.90164 9.12101 4.95268C9.07703 4.96434 9.03328 4.97594 8.99011 4.98763C8.75915 5.05014 8.54401 5.11527 8.40622 5.20514L8.41476 5.21823L8.40253 5.22621C8.19271 5.36307 7.88091 5.56645 7.76592 5.79139L7.75202 5.78426C7.75202 5.78426 7.75201 5.78427 7.75201 5.78428C7.67276 5.93871 7.67548 6.05216 7.7028 6.16497C7.712 6.20298 7.72412 6.24134 7.73659 6.2808C7.74229 6.29883 7.74806 6.3171 7.75366 6.33567C7.77165 6.39535 7.78839 6.45967 7.79711 6.53405C7.82653 6.78753 7.7628 6.96409 7.64618 7.113C7.54272 7.24512 7.39775 7.35551 7.2365 7.47831C7.21452 7.49505 7.19223 7.51202 7.1697 7.52931L7.16967 7.52934C6.8985 7.7387 6.79052 7.90763 6.76578 8.10256C6.75351 8.19928 6.76187 8.30142 6.77955 8.4165C6.78952 8.48133 6.80261 8.55114 6.81678 8.62674C6.82765 8.6847 6.83915 8.74606 6.85038 8.8112C6.86762 8.91118 6.87478 9.0105 6.86894 9.09921C6.86309 9.18812 6.84424 9.26522 6.81044 9.32172C6.77699 9.37763 6.72901 9.41336 6.66303 9.42128C6.59615 9.42932 6.50858 9.40904 6.39636 9.34745C6.29065 9.2892 6.20721 9.20561 6.12204 9.12027C6.11147 9.10969 6.10087 9.09907 6.09021 9.08848Z" fill="#4AC5B5" stroke="#4AC5B5" stroke-width="0.03125"/>
</svg>
