<svg width="21" height="18" viewBox="0 0 21 18" fill="none" xmlns="http://www.w3.org/2000/svg">
<path d="M19.0522 5.53357L20.6933 3.89241L19.2086 2.40771L17.4152 4.20006C16.3127 3.53856 15.0275 3.15006 13.6499 3.15006C9.59798 3.15006 6.29993 6.44706 6.29993 10.5001C6.29993 14.5531 9.59798 17.8501 13.6499 17.8501C17.7019 17.8501 20.9999 14.5531 20.9999 10.5001C20.9987 8.65847 20.3032 6.88504 19.0522 5.53357ZM13.6499 15.7501C10.7551 15.7501 8.39993 13.3949 8.39993 10.5001C8.39993 7.60522 10.7551 5.25006 13.6499 5.25006C16.5448 5.25006 18.8999 7.60522 18.8999 10.5001C18.8999 13.3949 16.5448 15.7501 13.6499 15.7501Z" fill="#4AC5B5"/>
<path d="M12.6 7.35H14.7V11.55H12.6V7.35ZM11.55 0H15.75V2.1H11.55V0ZM1.05 5.25H5.25V7.35H1.05V5.25ZM1.05 13.65H5.25V15.75H1.05V13.65ZM0 9.45H4.1895V11.55H0V9.45Z" fill="#4AC5B5"/>
</svg>
