<svg width="26" height="26" viewBox="0 0 26 26" fill="none" xmlns="http://www.w3.org/2000/svg">
<path d="M1 10.5999C1 6.61955 4.2196 3.4 8.2 3.4L7.1716 5.45677M25 15.3998C25 19.3802 21.7804 22.5997 17.8 22.5997L18.8284 20.543M19 6.39996H19.0108M7 19.5998H7.0108M19.3 1.61923C21.496 0.71324 23.4304 1.01444 24.478 1.20643C24.7768 1.26163 25 1.55443 25 1.89402V9.64591C25 10.0515 24.6856 10.3539 24.328 10.2915C23.2528 10.1007 21.3964 9.86551 19.3 10.7295C17.0464 11.6595 14.7784 11.8335 13.54 11.7951C13.2328 11.7855 13 11.4951 13 11.1471V3.3952C13 2.99561 13.306 2.68121 13.6612 2.68721C14.9212 2.71121 17.1172 2.51921 19.3 1.61923ZM7.3 14.819C9.496 13.913 11.4292 14.2142 12.478 14.4062C12.7768 14.4614 13 14.7542 13 15.0938V22.8457C13 23.2513 12.6856 23.5537 12.328 23.4913C11.2528 23.3005 9.3964 23.0653 7.3 23.9305C5.0464 24.8593 2.7784 25.0345 1.54 24.9949C1.2328 24.9853 1 24.6949 1 24.3469V16.5938C1 16.1942 1.306 15.8798 1.6612 15.8858C2.9212 15.9098 5.1172 15.719 7.3 14.819Z" stroke="#010630" stroke-width="2" stroke-linecap="round" stroke-linejoin="round"/>
</svg>
